HIERARCHY
ROOT Hips
{
 OFFSET 0.000000 0.000000 0.000000
 CHANNELS 6 Xposition Yposition Zposition Yrotation Xrotation Zrotation
 JOINT Chest
 {
  OFFSET 0.000000 9.585900 0.002600
  CHANNELS 3 Yrotation Xrotation Zrotation
  JOINT Chest2
  {
   OFFSET 0.000000 9.601200 -0.005300
   CHANNELS 3 Yrotation Xrotation Zrotation
   JOINT Chest3
   {
    OFFSET 0.000000 9.561800 0.000000
    CHANNELS 3 Yrotation Xrotation Zrotation
    JOINT Chest4
    {
     OFFSET 0.000000 9.552100 0.000000
     CHANNELS 3 Yrotation Xrotation Zrotation
     JOINT Neck
     {
      OFFSET 0.000000 14.453000 0.000000
      CHANNELS 3 Yrotation Xrotation Zrotation
      JOINT Head
      {
       OFFSET 0.000000 8.936500 -0.011300
       CHANNELS 3 Yrotation Xrotation Zrotation
       End Site
       {
        OFFSET 0.000000 17.073600 -0.006000
       }
      }
     }
     JOINT RightCollar
     {
      OFFSET -2.921100 9.558500 0.000000
      CHANNELS 3 Yrotation Xrotation Zrotation
      JOINT RightShoulder
      {
       OFFSET -13.519700 0.000000 0.000000
       CHANNELS 3 Yrotation Xrotation Zrotation
       JOINT RightElbow
       {
        OFFSET 0.000000 -29.696600 0.000000
        CHANNELS 3 Yrotation Xrotation Zrotation
        JOINT RightWrist
        {
         OFFSET 0.000000 -24.004700 0.000000
         CHANNELS 3 Yrotation Xrotation Zrotation
         End Site
         {
          OFFSET 0.000000 -17.728500 0.000000
         }
        }
       }
      }
     }
     JOINT LeftCollar
     {
      OFFSET 2.921100 9.558500 0.000000
      CHANNELS 3 Yrotation Xrotation Zrotation
      JOINT LeftShoulder
      {
       OFFSET 13.519700 0.000000 0.000000
       CHANNELS 3 Yrotation Xrotation Zrotation
       JOINT LeftElbow
       {
        OFFSET 0.000000 -29.696600 0.000000
        CHANNELS 3 Yrotation Xrotation Zrotation
        JOINT LeftWrist
        {
         OFFSET 0.000000 -24.004700 0.000000
         CHANNELS 3 Yrotation Xrotation Zrotation
         End Site
         {
          OFFSET 0.000000 -17.728500 0.000000
         }
        }
       }
      }
     }
    }
   }
  }
 }
 JOINT RightHip
 {
  OFFSET -7.771700 -0.012900 -0.001300
  CHANNELS 3 Yrotation Xrotation Zrotation
  JOINT RightKnee
  {
   OFFSET 0.000000 -40.869800 0.001200
   CHANNELS 3 Yrotation Xrotation Zrotation
   JOINT RightAnkle
   {
    OFFSET 0.000000 -39.717900 0.002100
    CHANNELS 3 Yrotation Xrotation Zrotation
    JOINT RightToe
    {
     OFFSET 0.000000 -4.965400 11.033500
     CHANNELS 3 Yrotation Xrotation Zrotation
     End Site
     {
      OFFSET 0.000000 -1.423100 5.872300
     }
    }
   }
  }
 }
 JOINT LeftHip
 {
  OFFSET 7.771700 -0.012900 -0.001300
  CHANNELS 3 Yrotation Xrotation Zrotation
  JOINT LeftKnee
  {
   OFFSET 0.000000 -40.869800 0.001200
   CHANNELS 3 Yrotation Xrotation Zrotation
   JOINT LeftAnkle
   {
    OFFSET 0.000000 -39.717900 0.002100
    CHANNELS 3 Yrotation Xrotation Zrotation
    JOINT LeftToe
    {
     OFFSET 0.000000 -4.965400 11.033500
     CHANNELS 3 Yrotation Xrotation Zrotation
     End Site
     {
      OFFSET 0.000000 -1.423100 5.872300
     }
    }
   }
  }
 }
}
MOTION
Frames: 12
Frame Time: 0.008333
0.000000 85.388000 0.000000 0.000000 -5.767877 0.000000 0.000000 11.653817 0.000000 0.000000 -5.885947 0.000000 0.000000 -0.000000 0.000000 0.000000 -0.000000 0.000000 0.000000 12.528835 0.000000 0.000000 0.711642 0.000000 0.000000 -0.000000 0.000000 0.000000 0.000000 -90.000000 0.000000 -2.309062 0.000000 0.000000 2.309062 0.000000 0.000000 -0.000000 0.000000 0.000000 -0.000000 90.000000 0.000000 -2.309062 0.000000 0.000000 2.309062 0.000000 0.000000 8.520406 0.000000 0.000000 1.905762 0.000000 -0.000000 -4.658285 0.000000 0.000000 -0.000000 0.000000 0.000000 8.520406 0.000000 0.000000 1.905762 0.000000 -0.000000 -4.658285 0.000000 0.000000 -0.000000 0.000000
-242.299780 57.218365 145.228352 176.612377 -40.113704 -0.025470 1.646715 23.444172 3.145026 0.092078 3.456940 0.429866 0.285972 5.627364 0.710683 1.181653 19.623682 2.664831 -1.316556 18.083696 -2.506173 -1.601366 -2.216365 -4.177869 2.214313 0.267137 -1.453308 10.969908 -14.347643 -10.367261 -154.439184 -81.524911 -174.867563 10.014468 -15.104086 -47.159417 -8.953437 0.613058 -1.727786 7.689873 -14.357918 -2.773763 172.120237 -71.429495 167.101514 -7.764842 -7.824650 29.087231 11.842338 -35.447079 -6.119452 -9.736569 65.088270 -10.448106 2.451910 27.049595 3.801975 -0.949380 -16.119206 7.052194 -9.103228 -33.957635 1.726412 29.276350 67.654673 29.401017 -12.675090 7.701303 -4.845456 -0.022572 0.214958 0.023726
-242.302952 57.220043 145.223364 176.622236 -40.101572 -0.017670 1.675756 23.449999 3.150333 0.103014 3.459334 0.432248 0.288663 5.620948 0.708531 1.173454 19.614183 2.669827 -1.248460 18.165604 -2.507240 -1.541274 -2.074889 -4.164413 2.323162 0.315183 -1.440392 10.939894 -14.383090 -10.420338 -153.924870 -81.552488 -175.361038 10.034982 -15.106441 -47.138509 -8.984120 0.634234 -1.796269 7.780092 -15.031052 -2.714295 173.084958 -70.243069 166.640810 -7.965835 -7.892861 29.432127 11.832369 -35.454773 -6.137576 -9.724836 65.095763 -10.443574 2.457789 27.041047 3.805525 -0.952896 -16.120473 7.048448 -9.100957 -33.969055 1.697606 29.296783 67.649611 29.429687 -12.661752 7.689630 -4.858861 -0.035311 0.201502 0.014478
-242.307016 57.219679 145.220160 176.631100 -40.068310 -0.004298 1.701278 23.431455 3.146641 0.139739 3.471741 0.435477 0.265012 5.602671 0.706386 1.165865 19.609839 2.676663 -1.180804 18.246726 -2.510662 -1.477278 -1.922624 -4.151579 2.386917 0.340577 -1.426004 10.896770 -14.407210 -10.449374 -153.493279 -81.568965 -175.718976 10.051557 -15.105111 -47.115586 -9.019025 0.636563 -1.848305 7.887412 -15.703409 -2.666203 173.887523 -69.033109 166.328867 -8.136771 -7.993790 29.841979 11.832991 -35.484336 -6.168357 -9.729688 65.108633 -10.453739 2.468841 27.018146 3.806650 -0.951073 -16.112030 7.046591 -9.099743 -34.002716 1.671356 29.319317 67.644510 29.463736 -12.672519 7.671022 -4.886649 -0.031399 0.202867 0.019402
-242.309716 57.220053 145.215528 176.640528 -40.042278 0.002623 1.708521 23.412097 3.140159 0.161917 3.474699 0.435504 0.272412 5.597951 0.705566 1.268670 19.604890 2.673669 -1.202701 18.327808 -2.466018 -1.411001 -1.760816 -4.140107 2.286832 0.342588 -1.365149 10.913868 -14.412620 -10.473738 -153.124198 -81.578304 -176.020455 10.069056 -15.103145 -47.093956 -9.157410 0.639166 -1.835721 7.991212 -16.383480 -2.637571 174.500866 -67.817702 166.194794 -8.287602 -8.113639 30.280451 11.829886 -35.506860 -6.187081 -9.713914 65.116891 -10.446643 2.470371 27.009433 3.808587 -0.951507 -16.112609 7.047005 -9.111408 -34.036322 1.648123 29.349589 67.653219 29.502390 -12.656923 7.659524 -4.904788 -0.039288 0.193201 0.016196
-242.312092 57.219431 145.211484 176.649821 -40.009155 0.010466 1.714889 23.384904 3.131859 0.192115 3.477704 0.437446 0.268835 5.589180 0.705043 1.292064 19.595089 2.673393 -1.162509 18.419648 -2.454955 -1.342956 -1.589351 -4.132192 2.261544 0.358906 -1.335276 11.053813 -14.399395 -10.538545 -152.840108 -81.582467 -176.361774 10.086641 -15.104897 -47.073460 -9.219170 0.648295 -1.824326 8.089683 -17.076471 -2.654383 174.917148 -66.614300 166.227341 -8.438924 -8.236288 30.699233 11.828369 -35.538424 -6.205678 -9.705222 65.124714 -10.447617 2.467830 27.005945 3.807681 -0.949634 -16.115804 7.048791 -9.118764 -34.074639 1.635676 29.368539 67.656950 29.519350 -12.652169 7.652542 -4.919364 -0.046293 0.184122 0.017223
-242.312864 57.218661 145.207083 176.654844 -39.977926 0.015862 1.744869 23.363030 3.139292 0.191379 3.470133 0.438511 0.274239 5.581191 0.703677 1.285242 19.592854 2.674203 -1.142238 18.466958 -2.450034 -1.229528 -1.368608 -4.151046 2.300407 0.381773 -1.320371 11.096705 -14.400647 -10.583136 -152.702208 -81.582992 -176.551770 10.066975 -15.119147 -47.003197 -9.246161 0.640448 -1.866479 8.170384 -17.776766 -2.644485 175.131003 -65.433464 166.403254 -8.601947 -8.348727 31.040670 11.823295 -35.570603 -6.212661 -9.699553 65.133504 -10.455209 2.463349 27.003182 3.806169 -0.947048 -16.119728 7.050925 -9.124338 -34.109443 1.630106 29.383420 67.664834 29.538259 -12.657397 7.633724 -4.942270 -0.038084 0.180705 0.019901
-242.312456 57.218581 145.201291 176.667923 -39.956704 0.014691 1.765600 23.349455 3.150625 0.182417 3.461652 0.434969 0.277798 5.574476 0.702887 1.289327 19.589820 2.674470 -1.061989 18.575677 -2.455061 -1.179529 -1.195887 -4.142680 2.397375 0.421691 -1.301168 11.057442 -14.415969 -10.629002 -152.366470 -81.577965 -176.844997 10.098404 -15.118896 -47.016656 -9.258754 0.589557 -1.941520 8.236413 -18.445860 -2.601065 175.156685 -64.271735 166.697101 -8.775127 -8.429363 31.203647 11.803211 -35.593244 -6.208633 -9.698849 65.151500 -10.473696 2.457499 26.980036 3.801322 -0.945179 -16.113846 7.055976 -9.133118 -34.132168 1.623775 29.389454 67.671720 29.554306 -12.660640 7.612521 -4.973379 -0.028021 0.178870 0.026352
-242.312012 57.216645 145.197082 176.672121 -39.921452 0.024072 1.783467 23.318868 3.150484 0.178653 3.452353 0.435456 0.264761 5.575646 0.700201 1.329287 19.568555 2.673597 -1.007710 18.695036 -2.451400 -1.128613 -1.012593 -4.141454 2.404158 0.455514 -1.278709 11.087214 -14.416240 -10.668349 -152.109995 -81.571969 -177.090129 10.118709 -15.119910 -47.015678 -9.297648 0.587051 -1.952790 8.352562 -19.143324 -2.618544 175.031253 -63.116409 167.073246 -8.961019 -8.447819 31.081041 11.802451 -35.626708 -6.220271 -9.702021 65.156801 -10.488078 2.457079 26.972561 3.799035 -0.946273 -16.112166 7.059153 -9.133732 -34.168766 1.614867 29.394406 67.672472 29.559934 -12.651643 7.600623 -4.990574 -0.033883 0.179093 0.031901
-242.310315 57.215863 145.190946 176.682030 -39.899412 0.028617 1.790531 23.300320 3.150752 0.179302 3.440175 0.436615 0.269683 5.568040 0.696808 1.343204 19.550379 2.674143 -1.006032 18.765003 -2.443321 -1.029013 -0.765282 -4.170732 2.412178 0.496758 -1.258305 11.119640 -14.414888 -10.705379 -152.046186 -81.570140 -177.207380 10.102716 -15.132172 -46.962892 -9.332927 0.611547 -1.952620 8.514003 -19.853260 -2.643189 174.814555 -61.962986 167.465864 -9.173201 -8.382371 30.624664 11.792355 -35.647087 -6.226839 -9.690015 65.168812 -10.485031 2.445199 26.957521 3.789952 -0.942099 -16.108647 7.061327 -9.133889 -34.195151 1.599158 29.414440 67.674989 29.586718 -12.645113 7.591469 -5.005928 -0.041564 0.181085 0.041444
-242.307062 57.216205 145.182977 176.699767 -39.889317 0.024718 1.788010 23.291498 3.153471 0.170672 3.433943 0.434053 0.282236 5.552397 0.697057 1.360927 19.479903 2.681198 -1.010642 18.891329 -2.445263 -0.938833 -0.513320 -4.201479 2.413365 0.591935 -1.242936 11.149028 -14.410179 -10.739783 -151.882783 -81.565043 -177.366258 10.121563 -15.128324 -46.971138 -9.360918 0.664124 -1.985888 8.704682 -20.531761 -2.631450 174.592164 -60.823193 167.777762 -9.402174 -8.231187 29.842671 11.756393 -35.658184 -6.209875 -9.667788 65.192633 -10.490446 2.422246 26.920830 3.780676 -0.936207 -16.095050 7.064753 -9.135132 -34.207347 1.588094 29.429309 67.679381 29.613729 -12.653408 7.571455 -5.030850 -0.041431 0.177152 0.044904
-242.305043 57.212289 145.179609 176.697140 -39.839385 0.044145 1.785794 23.240826 3.141696 0.168777 3.429622 0.429932 0.285418 5.532016 0.699394 1.351044 19.450808 2.683384 -0.961658 19.016933 -2.458868 -0.881478 -0.293717 -4.224782 2.431230 0.649858 -1.244369 11.187477 -14.404301 -10.768061 -151.671136 -81.555506 -177.531899 10.161860 -15.111636 -47.023187 -9.335475 0.615169 -2.044030 8.908603 -21.135464 -2.572459 174.440979 -59.718159 167.927538 -9.600098 -8.023484 28.837488 11.749419 -35.708130 -6.215335 -9.658665 65.207723 -10.509107 2.402793 26.883203 3.764588 -0.931208 -16.070377 7.075517 -9.125199 -34.259622 1.577091 29.448786 67.683553 29.632016 -12.651846 7.544284 -5.045429 -0.048767 0.182291 0.045288
